HIERARCHY
ROOT Pelvis
{
	OFFSET 0.000000 0.000000 0.000000
	CHANNELS 6 Xposition Yposition Zposition Zrotation Yrotation Xrotation 
	JOINT Left_hip
	{
		OFFSET 0.070241 -0.085575 -0.010474
		CHANNELS 3 Zrotation Yrotation Xrotation
		JOINT Left_knee
		{
			OFFSET 0.032125 -0.356873 -0.000555
			CHANNELS 3 Zrotation Yrotation Xrotation
			JOINT Left_ankle
			{
				OFFSET -0.010961 -0.370212 -0.042278
				CHANNELS 3 Zrotation Yrotation Xrotation
				JOINT Left_foot
				{
					OFFSET 0.023322 -0.052281 0.110104
					CHANNELS 3 Zrotation Yrotation Xrotation
					End Site
					{
						OFFSET 0.000000 0.000000 0.000000
					}
				}
			}
		}
	}
	JOINT Right_hip
	{
		OFFSET -0.068518 -0.084320 -0.007402
		CHANNELS 3 Zrotation Yrotation Xrotation
		JOINT Right_knee
		{
			OFFSET -0.037345 -0.364815 -0.003619
			CHANNELS 3 Zrotation Yrotation Xrotation
			JOINT Right_ankle
			{
				OFFSET 0.013394 -0.370006 -0.039954
				CHANNELS 3 Zrotation Yrotation Xrotation
				JOINT Right_foot
				{
					OFFSET -0.019600 -0.045455 0.113223
					CHANNELS 3 Zrotation Yrotation Xrotation
					End Site
					{
						OFFSET 0.000000 0.000000 0.000000
					}
				}
			}
		}
	}
	JOINT Spine1
	{
		OFFSET -0.002404 0.098129 -0.018169
		CHANNELS 3 Zrotation Yrotation Xrotation
		JOINT Spine2
		{
			OFFSET 0.003989 0.127209 -0.001742
			CHANNELS 3 Zrotation Yrotation Xrotation
			JOINT Spine3
			{
				OFFSET 0.001758 0.046641 0.023475
				CHANNELS 3 Zrotation Yrotation Xrotation
				JOINT Neck
				{
					OFFSET -0.003759 0.194901 -0.039982
					CHANNELS 3 Zrotation Yrotation Xrotation
					JOINT Head
					{
						OFFSET 0.003999 0.063756 0.047665
						CHANNELS 3 Zrotation Yrotation Xrotation
						End Site
						{
							OFFSET 0.000000 0.000000 0.000000
						}
					}
				}
				JOINT Left_collar
				{
					OFFSET 0.071816 0.109048 -0.028973
					CHANNELS 3 Zrotation Yrotation Xrotation
					JOINT Left_shoulder
					{
						OFFSET 0.084027 0.032269 -0.006525
						CHANNELS 3 Zrotation Yrotation Xrotation
						JOINT Left_elbow
						{
							OFFSET 0.243854 -0.013992 -0.025905
							CHANNELS 3 Zrotation Yrotation Xrotation
							JOINT Left_wrist
							{
								OFFSET 0.232156 0.008196 -0.000339
								CHANNELS 3 Zrotation Yrotation Xrotation
								JOINT Left_palm
								{
									OFFSET 0.075377 -0.009461 -0.012494
									CHANNELS 3 Zrotation Yrotation Xrotation
									End Site
									{
										OFFSET 0.000000 0.000000 0.000000
									}
								}
							}
						}
					}
				}
				JOINT Right_collar
				{
					OFFSET -0.073768 0.107001 -0.033755
					CHANNELS 3 Zrotation Yrotation Xrotation
					JOINT Right_shoulder
					{
						OFFSET -0.086837 0.032868 -0.009431
						CHANNELS 3 Zrotation Yrotation Xrotation
						JOINT Right_elbow
						{
							OFFSET -0.236446 -0.012544 -0.018747
							CHANNELS 3 Zrotation Yrotation Xrotation
							JOINT Right_wrist
							{
								OFFSET -0.236110 0.006124 -0.004327
								CHANNELS 3 Zrotation Yrotation Xrotation
								JOINT Right_palm
								{
									OFFSET -0.074800 -0.006875 -0.009610
									CHANNELS 3 Zrotation Yrotation Xrotation
									End Site
									{
										OFFSET 0.000000 0.000000 0.000000
									}
								}
							}
						}
					}
				}
			}
		}
	}
}
MOTION
Frames: 14
Frame Time: 0.100000
0.249190 0.070343 -0.220269 5.832385 3.380381 -170.644050 -1.382366 -0.124892 16.866875 0.533675 -9.320863 2.214311 -1.696289 14.538500 -11.290411 -2.619548 -5.472303 -6.999206 4.670865 2.994666 -13.167913 -0.341692 -3.481235 -1.434939 12.161662 -11.100821 -0.139449 -13.869696 1.209579 13.539678 1.742965 -7.584858 4.313980 -2.453445 -2.929660 -6.541664 1.393513 -4.743112 -1.123411 -0.316972 -25.870322 -3.760486 9.448253 -7.734157 2.037633 -15.546036 -11.950655 -1.973688 -60.016184 -25.134950 38.138537 -135.308740 -79.004513 163.245311 -1.548263 -21.640174 -42.347336 2.429194 2.279010 11.623945 -0.440338 6.263854 -9.422551 -3.519171 1.935726 -9.219120 -11.121762 22.344982 -21.036883 9.535890 8.049138 -13.174113 -5.968006 1.909295 7.551408 
0.217224 0.076668 -0.290662 6.703238 2.390940 -170.367498 1.858105 -0.650945 15.782838 -0.296176 -11.074094 11.887746 -7.505265 14.250269 -6.983996 2.930046 -7.725107 -8.802589 7.240681 2.352819 -8.711077 0.668245 -1.731534 -1.556704 12.553287 -12.976022 -0.898511 -17.780292 5.441912 13.391724 0.854030 -7.497421 2.998165 -1.579739 -4.346763 -5.572870 1.573081 -5.256006 -1.703666 1.608299 -26.486221 -4.993140 11.339853 -9.005360 3.455477 -17.391695 -12.063436 0.142070 -52.371809 -20.042142 35.571210 -126.318566 -75.315120 153.598085 0.576669 -21.045940 -40.676006 -1.325903 1.405871 6.631784 1.632912 7.328169 -8.554646 -4.575281 -1.997605 -8.565301 -8.905619 25.307500 -19.967934 7.370303 9.017692 -14.574980 -3.146841 1.926555 6.017850 
0.188818 0.084219 -0.351779 7.279467 3.192413 -170.710212 6.208332 -0.023310 8.226932 -4.638362 -9.062860 30.914635 -13.584468 10.744728 5.836766 4.559880 -8.720960 -14.739497 9.066997 -0.016376 -3.872639 2.111194 -0.477391 -0.992780 8.204972 -9.141169 -2.926299 -14.719500 2.366886 13.284117 0.888815 -6.531653 2.958280 -1.295884 -5.328512 -5.168965 1.365636 -5.394360 -2.147735 1.664573 -28.609382 -4.263264 13.758278 -9.191541 2.049943 -18.078077 -9.688365 0.937147 -49.420701 -15.552647 34.862462 -127.187814 -72.324034 154.137702 0.526504 -22.267466 -43.784984 -2.256620 2.146677 6.345431 1.173292 6.423830 -7.815977 -4.150978 -3.268806 -8.943150 -7.642632 27.873562 -18.132692 7.771171 9.120744 -16.702568 -3.015869 1.714114 7.726058 
0.167696 0.091660 -0.398803 7.541238 5.272314 -172.180416 8.169717 -2.048589 -2.774966 -7.145106 -5.054727 50.876442 -14.856977 10.247608 10.256487 4.587736 -8.955445 -16.889440 10.111492 -1.406518 2.158107 2.099572 1.583488 -1.706986 5.174778 -6.347458 -4.358584 -12.252242 -1.793282 13.358883 0.342448 -4.706555 5.171813 -0.743094 -6.644274 -5.064094 1.709898 -5.476769 -1.593002 2.089747 -30.643649 -4.266946 15.681608 -8.328702 0.675870 -18.642907 -7.856260 2.506168 -51.603184 -10.284136 34.733636 -129.815698 -74.007324 154.170457 0.805466 -22.385191 -49.637194 -1.820183 2.743338 7.479820 0.089092 6.037136 -8.071348 -3.388476 -2.370299 -9.627468 -8.428941 28.247945 -19.542089 8.489594 8.241055 -17.903509 -4.102260 1.527578 8.586422 
0.152401 0.097761 -0.440820 7.674096 11.130091 -172.513022 7.474283 -4.025577 -11.115386 -3.487540 0.829699 52.417734 -9.751531 16.216546 -1.941966 6.893376 -8.219067 -13.699468 9.981457 -1.014721 6.344541 1.029449 6.539798 -1.613611 7.680419 -6.562117 -6.675742 -14.869516 -1.415541 12.922597 -0.590579 -2.217489 6.096511 -0.694812 -6.477051 -4.736577 1.677622 -4.437244 -0.457063 4.708523 -31.336935 -6.194128 17.046022 -9.442391 0.249424 -19.523913 -6.971849 3.189768 -51.810405 -6.661531 34.777552 -132.101251 -72.420927 155.982574 0.927744 -21.357711 -50.044097 -3.334270 2.300443 6.216619 0.159116 6.573999 -7.563804 -3.599074 -2.099947 -9.663042 -8.649546 28.308256 -20.403804 8.359899 7.583497 -16.674335 -2.918486 1.758633 5.197046 
0.140908 0.104758 -0.480550 8.460564 18.194878 -171.842975 5.961279 -6.252381 -14.703077 -0.898400 0.051675 34.397101 -8.659758 18.594335 -7.629483 10.418142 -7.036935 -10.289968 9.234161 -0.179826 8.897321 0.504180 11.055521 -0.583616 10.588043 -5.415779 -8.484521 -16.392305 -0.696622 12.019397 -0.549470 -0.465525 6.427912 -0.939218 -5.539794 -3.791359 1.632910 -2.980039 0.112810 8.020943 -30.490343 -8.763509 18.124003 -11.977178 -1.679684 -19.524705 -5.751972 2.156122 -52.351316 -4.681305 35.018172 -137.135062 -72.572216 161.893263 -0.599930 -21.442430 -48.116592 -3.335178 2.222717 4.610534 -0.481446 7.247859 -7.184100 -3.233379 -0.984283 -10.406303 -9.121186 27.304390 -20.957211 9.288427 7.783435 -15.483466 -2.631042 1.465146 3.013496 
0.129982 0.114279 -0.519573 9.783289 24.574893 -170.725730 6.204677 -7.665910 -16.780849 -0.557725 -6.154566 13.666641 -12.493034 14.795559 0.506349 14.549180 -6.342836 -9.837713 8.261920 0.082595 11.090539 0.502984 14.706421 0.338829 11.317802 -3.432144 -9.697456 -16.223008 -0.525998 10.877425 -0.047927 0.737121 6.658746 -0.948762 -5.044591 -1.803676 1.774399 -1.817716 -0.166652 10.170589 -28.848900 -11.181250 19.708829 -14.302387 -4.627971 -18.847151 -6.132039 0.840621 -52.036312 -3.857870 36.787349 -137.712405 -72.820817 162.501874 -0.271229 -21.718286 -46.939411 -3.461946 2.607231 2.538497 -1.480948 8.776940 -6.987917 -3.472005 -0.611493 -11.039620 -8.974731 26.794178 -21.539448 9.773089 8.427863 -15.550598 -2.925908 0.670391 2.202193 
0.116978 0.125308 -0.563693 11.174057 30.875686 -169.691792 7.053602 -8.307655 -16.723388 -0.263201 -11.087837 0.310752 -15.341887 12.291692 1.411626 17.718678 -5.845606 -8.635965 6.445028 0.128462 13.564713 0.609277 18.593604 1.499459 13.561091 -1.616339 -10.986576 -17.890089 0.414876 9.416812 0.072773 1.851636 6.574706 -1.013855 -4.613694 0.329158 1.783099 -0.867857 -0.506258 12.264535 -27.010741 -13.853869 20.889046 -15.945279 -6.809029 -18.958432 -7.137128 0.084242 -51.219449 -3.166603 37.956500 -138.587766 -72.968227 162.499709 0.551214 -21.970394 -47.003858 -3.846406 2.783602 1.531379 -1.771116 10.381505 -6.769141 -4.531646 -0.967272 -11.325807 -8.192368 26.943234 -21.751248 10.294878 8.783272 -15.254655 -2.800818 0.331952 1.276352 
0.099845 0.138233 -0.618982 12.560090 36.977942 -168.232126 6.059900 -9.600581 -17.542661 -1.487601 -11.949230 6.811572 -13.933952 11.746073 1.136252 16.221331 -4.713552 -9.635031 4.673945 0.868613 15.230762 0.232137 21.792088 4.646357 13.806635 -0.697688 -12.219009 -18.437080 0.370671 7.870033 0.375188 2.649881 5.025716 -1.236402 -3.894103 0.988607 1.139119 -0.120233 -0.680424 13.169048 -27.360821 -13.940840 20.669057 -16.003908 -6.157998 -19.712783 -7.196337 -0.358697 -51.078161 -3.673739 38.466997 -137.199459 -73.191809 161.015218 -0.531306 -21.900404 -46.071128 -4.359748 3.040801 2.351985 -1.127989 11.368921 -6.293196 -5.394466 -0.612341 -11.086476 -7.776986 26.758427 -21.731094 10.792891 8.284264 -14.070097 -2.857333 0.360459 1.096105 
0.074677 0.146554 -0.683041 11.959028 39.799430 -167.211565 3.735844 -11.776486 -17.970606 -3.061117 -11.150808 13.023443 -10.686846 13.114483 1.043458 13.935818 -5.400604 -10.651918 2.739715 1.749289 14.371445 0.686628 22.664518 11.595396 15.453281 -0.889713 -9.981060 -19.912973 0.697921 6.224357 -0.736880 2.655657 2.122501 -1.157161 -3.696171 -1.258128 0.430034 -0.219725 -0.422395 12.463446 -29.489918 -11.765560 19.262584 -16.776827 -1.377298 -19.988292 -6.472890 -0.328934 -50.968696 -5.312940 39.320600 -135.037123 -73.387028 157.826543 -0.355027 -22.034085 -46.218985 -4.918515 3.554471 3.429717 0.360792 10.343363 -6.196563 -6.262419 -0.675245 -8.516515 -5.525588 27.846088 -19.454048 11.500644 9.200858 -14.599820 -3.996373 0.132253 2.143708 
0.045580 0.152832 -0.746426 10.613690 39.125123 -168.212053 0.368712 -12.050732 -12.931800 -3.835300 -11.676451 12.623164 -5.643962 14.171172 -1.396135 8.784748 -7.602270 -9.610034 1.023926 1.724514 10.481065 4.372581 20.577890 25.659269 18.783466 0.217297 0.004833 -19.592071 -0.007452 3.958262 -1.499631 1.160106 0.663769 -1.040562 -3.751132 -3.354088 -0.182330 -1.019708 -0.762274 9.278461 -32.473620 -7.675525 17.621942 -16.612288 2.247884 -19.571653 -6.339113 -0.461999 -50.127748 -6.805239 39.530108 -132.314572 -73.212906 154.445477 -1.095550 -22.863952 -46.753573 -5.647281 3.877438 3.669730 0.664145 8.690464 -6.319781 -7.610896 -2.158543 -5.920887 -1.827831 29.275835 -13.135064 13.392626 9.723821 -14.094611 -4.001089 0.558316 3.442011 
0.018895 0.156442 -0.790308 10.499322 39.819141 -167.615169 -0.717325 -10.734326 -8.125487 -4.548938 -12.959510 9.449255 -1.770727 14.599456 -2.904128 4.658271 -8.876021 -8.990641 -0.837071 2.359947 -0.657015 9.577018 16.554949 44.013958 23.592700 2.087752 11.798820 -16.434540 -1.866323 0.856617 -2.858994 -1.056481 0.951095 -0.207808 -3.105416 -5.254984 -0.385190 -1.906811 -0.310069 9.478358 -32.012599 -7.988515 16.769999 -16.252890 2.098039 -18.055603 -4.759868 -0.850975 -50.256365 -8.416515 40.375034 -128.862698 -71.825796 150.226821 0.748930 -23.278844 -47.014373 -7.186005 3.528896 2.452781 0.633765 5.819069 -7.324064 -7.281613 -0.733998 -4.761754 -1.763893 29.146532 -13.458957 13.494637 9.753232 -12.578996 -2.435006 1.232133 2.672555 
-0.004493 0.156589 -0.814549 13.587608 43.172899 -165.036568 0.033595 -8.904749 -4.989150 -3.957219 -13.701003 8.890562 -3.143522 17.139710 -5.679701 8.027981 -8.389340 -10.540788 -1.181396 3.935897 -12.182931 10.153827 9.522354 52.796393 18.373781 -0.266661 -2.956625 -17.234036 -1.203749 2.834073 -2.059763 -3.490441 3.749838 -0.095115 -2.120505 -5.938944 -0.003545 -2.372426 -0.210675 11.406602 -29.124766 -11.538274 16.006483 -16.632977 1.514858 -17.461025 -5.358947 -0.400081 -50.924042 -7.691891 40.301029 -129.889214 -72.088465 150.857821 0.891989 -23.108576 -49.573066 -4.417777 4.360762 2.922924 0.172127 6.519760 -7.201353 -5.797447 -0.761680 -5.374870 -3.428623 28.533517 -15.271422 13.435118 10.195053 -13.339308 -5.770664 0.094517 3.610336 
-0.025553 0.154640 -0.830702 17.876801 47.951468 -160.855342 1.511057 -5.424223 -3.107905 -3.049911 -11.672270 8.783403 -6.369188 16.864059 -7.876683 11.528472 -6.640301 -11.278675 -1.860828 2.276882 -18.720648 5.153102 3.972375 38.222841 17.006846 -7.336352 -12.154563 -23.877969 3.516695 5.368809 -0.279761 -4.913900 6.110075 -1.093585 -1.616700 -6.514433 0.616886 -2.567094 -0.027569 11.192918 -27.060229 -13.682241 15.683299 -15.411382 1.882433 -17.068101 -6.461366 0.332221 -51.380644 -7.645825 38.508490 -128.860276 -71.485687 149.646246 -0.771362 -23.329532 -50.878130 -2.158134 3.726537 4.484193 -0.591987 7.981534 -6.855767 -4.262747 -0.850512 -6.872504 -4.141678 29.484092 -17.187208 12.934022 10.528011 -12.737063 -7.041193 0.122998 3.967086 
